PathFileType	4	(X/Y/Z)	D:\TRACE\v60_Jaco2_6-2-23\BothDRS_Motion2_2-platform.trc
DataRate	CameraRate	NumFrames	NumMarkers	Units	OrigDataRate	OrigDataStartFrame	OrigNumFrames
100.00	100.00	      36	5	mm	100.00	2813	      7500
Frame#	Time	Left_Front			Right_Front			Left_Aft			Right_Aft			Post			
		X1	Y1	Z1	X2	Y2	Z2	X3	Y3	Z3	X4	Y4	Z4	X5	Y5	Z5	

2813	28.120	-828.21716	12.18116	-637.85010	742.06555	12.71816	-643.15662	-736.01904	5.96119	497.29886	705.94501	5.08078	506.48743	-41.70656	1312.11243	-957.24670	
2814	28.130	-829.06378	10.57093	-638.19482	741.13043	11.29906	-643.43103	-737.09247	6.99525	496.81790	704.93903	6.13205	506.27881	-42.56331	1310.14404	-960.08478	
2815	28.140	-830.05389	9.07247	-638.65741	739.90381	9.95885	-644.00732	-738.16699	8.14496	496.55035	704.26385	7.30194	505.81964	-43.40105	1307.97302	-962.99036	
2816	28.150	-831.03430	7.46952	-638.78180	739.03864	8.42673	-644.17041	-738.94733	8.74355	496.34293	703.01221	8.10048	505.58170	-44.77872	1305.73242	-965.42743	
2817	28.160	-832.19061	6.08548	-639.20483	738.04608	7.01019	-644.39899	-740.31940	10.05755	495.81705	702.24359	9.24283	505.27939	-46.11235	1303.58289	-967.89728	
2818	28.170	-833.14838	4.93567	-639.57098	736.95630	5.65649	-644.94250	-741.23590	10.86715	495.53680	701.09930	10.13272	504.89130	-46.74518	1301.30200	-970.39984	
2819	28.180	-834.04767	3.10833	-639.78992	736.03857	4.14055	-645.38702	-742.34381	12.35758	495.22806	700.10919	11.24104	504.51089	-47.77718	1299.46460	-973.32971	
2820	28.190	-834.85394	1.92036	-640.01349	735.20337	2.78718	-645.46246	-743.31647	13.21777	495.01874	699.14520	12.36732	504.14868	-48.60455	1297.19897	-976.19312	
2821	28.200	-835.72113	0.57424	-640.70337	734.05145	1.47095	-645.92914	-743.59991	13.76130	494.26953	697.96167	13.40601	503.80417	-49.40655	1295.22595	-979.43079	
2822	28.210	-836.98187	-0.87766	-640.77612	733.29865	-0.02257	-646.22424	-744.66644	14.59497	493.98395	697.41858	14.38684	503.49536	-50.59687	1293.02478	-983.11292	
2823	28.220	-837.93018	-2.44646	-641.12836	732.27972	-1.29272	-646.49677	-745.76587	15.62999	493.74927	696.36981	15.21100	503.23138	-51.89191	1291.05298	-986.54962	
2824	28.230	-838.97089	-3.54621	-641.58514	731.62476	-2.75781	-646.73389	-746.29547	16.31383	493.34445	695.12598	16.25446	502.90182	-52.56044	1288.79480	-989.77911	
2825	28.240	-839.38574	-5.10109	-641.88586	730.52930	-4.24449	-647.02319	-747.13751	17.38543	493.24753	695.54248	17.64127	503.25598	-53.06535	1286.80469	-993.45215	
2826	28.250	-840.37836	-6.39512	-642.02509	729.93292	-5.25268	-647.08844	-748.24121	18.54158	492.65854	694.49951	18.36250	502.47223	-54.01944	1284.86548	-996.44244	
2827	28.260	-841.03253	-7.56877	-642.39526	729.03577	-6.81267	-647.53955	-748.97809	19.42956	492.30753	693.42871	19.29352	502.03076	-55.03874	1282.70239	-999.81433	
2828	28.270	-841.93152	-9.19755	-642.73157	728.16925	-8.14932	-647.94586	-749.82611	20.25354	492.03061	692.59088	20.25585	501.68420	-55.72092	1280.52600	-1002.55695	
2829	28.280	-842.86322	-10.34618	-642.80981	727.45929	-9.31958	-648.18530	-750.79669	21.31511	491.75885	691.81598	21.28876	501.33701	-56.58159	1278.62683	-1005.12994	
2830	28.290	-843.68237	-11.85680	-643.05798	726.59631	-11.00502	-648.53033	-751.51630	22.18266	491.47260	691.11401	22.38267	500.85971	-56.99652	1276.43530	-1007.72314	
2831	28.300	-844.19092	-13.05988	-643.32739	725.82892	-12.11419	-648.72015	-752.01685	23.04435	491.13199	690.70288	23.53757	500.40195	-57.80823	1274.49780	-1010.30914	
2832	28.310	-844.89246	-14.36810	-643.67780	725.22809	-13.41661	-649.01263	-752.84863	24.09519	490.94342	689.62219	23.87695	500.16742	-58.40371	1272.38293	-1012.78998	
2833	28.320	-845.50214	-15.70358	-644.10248	724.41473	-14.64824	-649.37006	-754.12665	25.35316	490.81561	688.73193	24.76273	499.72739	-59.06683	1270.46667	-1015.53851	
2834	28.330	-846.03320	-17.26048	-644.03290	723.93646	-15.99119	-649.42828	-754.75793	26.14085	490.43686	687.95978	25.67803	499.39648	-60.16634	1268.42249	-1017.74780	
2835	28.340	-846.78143	-18.54280	-644.58704	723.20044	-17.38541	-649.85712	-754.98865	26.94705	490.07724	687.37360	26.55931	499.12564	-60.67058	1266.64563	-1019.92310	
2836	28.350	-847.34644	-19.55994	-644.73956	722.70721	-18.39311	-649.86066	-755.30426	27.45476	489.54340	687.09637	27.43173	498.83807	-61.28685	1264.91663	-1022.34888	
2837	28.360	-847.84961	-20.70449	-644.92664	722.16699	-19.85173	-650.32788	-755.93054	28.44196	489.17474	686.45825	28.31570	498.41974	-61.61572	1262.84448	-1025.00720	
2838	28.370	-848.55981	-22.18182	-644.98950	721.75354	-20.79655	-650.53510	-756.66058	29.17658	488.77234	685.96832	29.28166	498.16095	-62.16727	1261.03320	-1027.89624	
2839	28.380	-849.00385	-22.99034	-645.25720	721.16406	-21.98043	-650.90613	-757.10425	29.86810	488.53342	685.41156	29.90065	497.83466	-62.67328	1259.03674	-1030.77759	
2840	28.390	-849.52356	-24.59083	-645.45605	720.76807	-23.20041	-651.02582	-757.38947	30.57369	488.24448	685.05518	30.69029	497.52234	-63.22335	1257.20422	-1033.72571	
2841	28.400	-849.93463	-25.72160	-645.65057	720.10150	-23.97043	-651.38190	-757.86926	31.46691	488.02881	684.36432	31.59511	497.22174	-63.44097	1255.12500	-1036.22607	
2842	28.410	-850.18304	-26.50922	-646.10052	719.85455	-24.79776	-651.65906	-757.94458	32.34766	487.69003	684.16449	32.33607	496.98340	-64.00052	1253.25989	-1038.56055	
2843	28.420	-850.46222	-28.00355	-646.26050	719.83209	-27.26259	-651.69055	-758.30811	33.22863	487.27252	684.12823	33.30172	496.35599	-64.13185	1251.22571	-1041.16101	
2844	28.430	-850.83221	-29.72919	-646.40063	719.51520	-28.19264	-652.00000	-758.59637	34.04904	486.92719	683.75354	34.37112	496.08606	-64.41093	1249.46411	-1043.66541	
2845	28.440	-851.06110	-31.11777	-646.63953	719.16455	-29.28411	-652.32379	-758.66614	34.51536	486.58084	683.48114	35.08301	495.67648	-64.69658	1247.28149	-1046.27209	
2846	28.450	-851.19708	-31.73150	-647.05011	718.99115	-30.18662	-652.58954	-758.84375	35.28671	486.25320	683.17975	35.67605	495.97812	-65.03996	1245.53259	-1048.80945	
2847	28.460	-851.18097	-32.75278	-647.15887	718.87659	-31.62971	-652.70789	-759.13605	36.39712	485.84445	683.35992	36.67164	495.50137	-65.11890	1243.63049	-1051.57312	
2848	28.470	-851.33337	-33.86856	-647.05933	718.79407	-32.59297	-653.01947	-759.11859	36.94811	485.72458	682.94055	37.41326	495.22546	-65.35403	1242.18921	-1054.14722	
